<?xml version="1.0" standalone="no"?><!DOCTYPE svg PUBLIC "-//W3C//DTD SVG 1.1//EN" "http://www.w3.org/Graphics/SVG/1.1/DTD/svg11.dtd"><svg t="1726559818898" class="icon" viewBox="0 0 1072 1024" version="1.1" xmlns="http://www.w3.org/2000/svg" p-id="8152" xmlns:xlink="http://www.w3.org/1999/xlink" width="209.375" height="200"><path d="M557.165835 775.447881a17.090977 17.090977 0 0 1-17.090976-17.090976v-87.896451a17.090977 17.090977 0 1 1 34.181953 0v87.896451a17.090977 17.090977 0 0 1-17.090977 17.090976z" fill="#373E50" p-id="8153"></path><path d="M557.165835 795.957053a134.774558 134.774558 0 0 1-122.078403-78.618492 17.090977 17.090977 0 1 1 30.763757-14.161095 101.080918 101.080918 0 0 0 91.314646 58.597634 97.662723 97.662723 0 0 0 90.826333-58.597634 17.090977 17.090977 0 0 1 22.462426-8.301331 16.602663 16.602663 0 0 1 8.301332 22.462426 133.309617 133.309617 0 0 1-121.590091 78.618492zM669.477967 417.514001a39.553403 39.553403 0 0 0 2.929882 15.137722 37.111835 37.111835 0 0 0 20.997485 20.997486 39.553403 39.553403 0 0 0 15.137722 2.929881 39.065089 39.065089 0 0 0 14.649409-2.929881 43.948225 43.948225 0 0 0 12.696154-8.301332 51.761243 51.761243 0 0 0 8.301331-12.696154 39.553403 39.553403 0 0 0 2.929882-15.137722 39.065089 39.065089 0 0 0-2.929882-14.649408 37.111835 37.111835 0 0 0-20.997485-20.997486 39.065089 39.065089 0 0 0-14.649409-2.929882 39.553403 39.553403 0 0 0-15.137722 2.929882 51.761243 51.761243 0 0 0-12.696154 8.301332 43.948225 43.948225 0 0 0-8.301331 12.696154 39.065089 39.065089 0 0 0-2.929882 14.649408zM370.141721 417.514001a39.553403 39.553403 0 0 0 11.231213 27.833876 39.553403 39.553403 0 0 0 55.179438 0 39.553403 39.553403 0 0 0 11.231214-27.833876 39.065089 39.065089 0 1 0-77.641865 0z" fill="#373E50" p-id="8154"></path><path d="M264.66598 146.499944L126.96154 101.086778a48.831362 48.831362 0 0 0-58.10932 62.015829c17.57929 48.831362 53.714498 101.569232 97.662723 89.849706M850.642318 146.499944l138.681067-45.413166a48.831362 48.831362 0 0 1 58.10932 62.015829c-17.57929 48.831362-53.714498 101.569232-97.662723 89.849706" fill="#FADCDC" p-id="8155"></path><path d="M80.083433 220.2353a254.899707 254.899707 0 0 1-25.880622-54.691125 61.039202 61.039202 0 0 1 14.161095-63.48077 63.969084 63.969084 0 0 1 63.48077-17.57929l155.28373 44.436539-27.833876 26.857249-135.751185-41.506657a32.717012 32.717012 0 0 0-40.53003 41.506657c15.137722 44.436539 45.90148 89.361392 77.153551 81.06006v27.833876c-36.135208 9.277959-58.10932-11.719527-80.083433-44.436539zM1036.201492 220.2353a254.899707 254.899707 0 0 0 25.880622-54.691125 61.039202 61.039202 0 0 0-14.161095-63.48077 63.969084 63.969084 0 0 0-63.48077-17.57929l-155.28373 44.436539 23.439054 26.857249 140.146008-41.506657a32.228699 32.228699 0 0 1 32.717012 8.789645 31.252071 31.252071 0 0 1 7.324704 32.717012c-15.137722 44.436539-45.413166 89.361392-76.665238 81.06006v29.787131c36.135208 9.277959 58.10932-13.672781 80.083433-46.389794z" fill="#373E50" p-id="8156"></path><path d="M163.585061 798.886935l20.020858 13.672781a24.903994 24.903994 0 0 0 0-28.32219zM24.415681 999.583831l-20.020858-13.672781a22.95074 22.95074 0 0 0 0 24.903994 24.415681 24.415681 0 0 0 21.485799 13.184468z m527.867018 0v24.415681a24.415681 24.415681 0 0 0 20.997486-11.719527 23.439054 23.439054 0 0 0 0-23.439054z m0 0v-22.95074a23.927367 23.927367 0 0 0-21.974112 35.15858z m467.804444-488.313616a462.432994 462.432994 0 0 1-462.432994 462.432994v48.831362a511.264356 511.264356 0 0 0 513.705924-509.799415zM557.654149 48.837221a462.432994 462.432994 0 0 1 464.874562 463.897935h48.831362A511.264356 511.264356 0 0 0 557.654149 0.00586z m-462.921308 463.897935A462.432994 462.432994 0 0 1 557.165835 50.302162V1.470801A511.264356 511.264356 0 0 0 45.90148 512.735156z m88.384765 271.50237a458.038171 458.038171 0 0 1-88.384765-271.50237h-48.831361a507.84616 507.84616 0 0 0 97.662723 300.312874zM43.948225 1013.744926l139.169381-201.18521-40.041717-27.833876-139.16938 201.18521z m507.846161-38.576776H24.415681v48.831362h527.867018z m-21.485799 35.15858l43.459911-21.485799z m26.857248-35.15858h-4.883136v48.831362h5.37145z" fill="#373E50" p-id="8157" data-spm-anchor-id="a313x.search_index.0.i4.11a53a81NXmeF1" class="selected"></path></svg>